<svg id="Layer_1" data-name="Layer 1" xmlns="http://www.w3.org/2000/svg" viewBox="0 0 862 217"><defs><style>.cls-1{fill:#fff;}</style></defs><path class="cls-1" d="M6.23,46.37C-1.85,37.09-2,27.68,5.44,21.46a15.48,15.48,0,0,1,21.89,2c6.45,7.81,4.66,16.57-5,24.48-1.46,11.39-1.2,22.88-.92,34.38a8.52,8.52,0,0,0,2.36,6.34C36.3,101,48.78,113.54,61.3,126a8.94,8.94,0,0,0,1.6.94V93c-6.08-4.52-8.75-10.73-6.35-18.53,1.9-6.18,6.55-9.34,15.58-10.89,4.57-7.11,9.23-14.36,14.38-22.39H36.08c.36-3,.86-5.48.89-7.93a69.42,69.42,0,0,0-.74-7.53c1.39-.12,2.94-.36,4.48-.37q16.24,0,32.49,0H186.87a396.61,396.61,0,0,1,2,51.72c8.86,9.62,9.71,18.69,2.53,25.4a15.61,15.61,0,0,1-22-.7c-6.75-7.27-5.52-16.35,3.54-24.58.07-11.74.31-23.69-.41-35.8H105.21C98.6,51.62,91.93,62,85.28,72.26c.62,2.37,1.21,4.61,1.91,7.3L128,102.73c8.42-4,18.1-3,22.91,7.38,3.87,8.3-.33,16.43-10.94,21.73-4.35,18.28-8.77,36.83-13.2,55.39l.78.62c1.27-.85,2.6-1.62,3.81-2.55,13.6-10.48,22.41-24.41,28.74-40.11A156.22,156.22,0,0,0,169,113.53a16.52,16.52,0,0,1,.64-2.39c.1-.28.41-.49.28-.34l7.08,1,8.14,1.11c-.65,3.34-1.26,6.89-2,10.41-4,18.38-10.34,35.79-20.84,51.53a92.77,92.77,0,0,1-28.71,28.07,9.63,9.63,0,0,0-4,4.18c-3.31,6.88-9.57,10.17-16.68,9.14a16.05,16.05,0,0,1-12.78-12.49c-1.24-6.78,1.85-13.05,8.27-16.74.72-.41,1.46-.77,2.54-1.33,4.3-18,8.64-36.26,13.18-55.27L87.11,148C83.68,159,77,163.82,68.05,162.17c-8.16-1.49-12.42-8.12-12.2-19.55l-30.48-30c.19,5.12,1.57,9.13,2.7,13.18,4.41,15.92,11.27,30.58,22.1,43.23a82.43,82.43,0,0,0,40,26.09c1.28.38,2.56.73,3.82,1.14.29.1.51.4,1,.77-1.3,5.31,0,10.37,3,15.94-2.66-.5-4.71-.79-6.71-1.28-30.71-7.5-52.62-26.1-67.3-53.68-8.7-16.35-13.44-33.95-16-52.22A258,258,0,0,1,5.4,66.44C5.47,59.79,5.93,53.13,6.23,46.37Zm112.29,69.15L79.11,93.16c.12,13.89-.22,27.2.23,41.1Z"/><path class="cls-1" d="M771.25,214.11H749.89V163l-.86-.19Q739,188.43,729,214.18H719.1c-6.46-16.62-13-33.46-19.55-50.3-.91,16.67-.86,33.29-.91,50.2H677.39c-.91-3.9-1-78-.07-83h29.45c5.89,14.19,11,29,17.3,44.31l17.14-44.25H771C771.89,134.91,772.13,207.19,771.25,214.11Z"/><path class="cls-1" d="M512.36,214.11v-83c1.58-.13,2.87-.32,4.16-.32q16.49,0,33,0A46.06,46.06,0,0,1,568,134.35c18.79,8.1,26.3,24.2,24.55,43.05a38.74,38.74,0,0,1-6.93,19.52c-6.47,9-15.37,14.1-26,16.28a61.15,61.15,0,0,1-11.38,1.13c-10.82.15-21.64.06-32.46,0C514.77,214.38,513.78,214.23,512.36,214.11Zm21.93-19.34c6.47,0,12.86.81,19-.19,8.84-1.44,14.58-7.47,16.31-16.2,1.87-9.44.57-18.46-8-24.62a17.36,17.36,0,0,0-8.2-3.33c-6.23-.49-12.54-.15-19.08-.15Z"/><path class="cls-1" d="M278.94,131h27.51c10.41,27.56,20.79,55.07,31.46,83.33-8.47.12-16.37,0-24.63,0-1.45-4-2.86-7.85-4.29-11.79h-32.4l-4.28,11.52H247.72C258.22,186.14,268.56,158.64,278.94,131Zm24,51.93c-3.42-10-6.72-19.6-10.32-30.12l-10.14,30.12Z"/><path class="cls-1" d="M447.57,131H475l31.23,82.69c-4.15,1.37-8.09.57-11.94.7s-8,0-12.34,0l-4.41-11.78H445.25l-4.37,11.5H416.33C426.83,186.16,437.14,158.71,447.57,131Zm24,52L461.3,152.78,451,183.21c6.37,0,12,0,17.66,0C469.48,183.2,470.29,183.06,471.57,182.94Z"/><path class="cls-1" d="M663,181.47H625.2v13.7h38.37c1.32,3.86,1.52,13,.5,18.89H603.22V131.64c3.69-1,55.08-1.27,61.1-.29V149.5c-4.27.94-8.58.33-12.83.44s-8.66,0-13,0H625.26v12.28c12.58.16,25.13,0,37.51.11C664,166.49,664.12,176.39,663,181.47Z"/><path class="cls-1" d="M417.24,151.92l-18.35,8.65c-.88-1.19-1.56-2.09-2.22-3-7.67-10.64-22.29-11.74-31.86-2.76-9.26,8.7-8.17,24.16-3.54,31.41,8,12.58,27.51,14.51,35.94.59.34-.56.73-1.08,1.07-1.58,4,.7,14.25,5.38,18.69,8.55-5.17,9.76-12.43,17.36-23.28,20.33-15.27,4.18-29.73,2-42.51-7.84-9.29-7.17-14.4-16.74-15.48-28.52-1.07-11.54.89-22.25,8.13-31.58,7.06-9.09,16.46-14.29,27.76-16.18,10.12-1.69,19.9-.88,29.1,4C408.16,137.9,413.22,144.07,417.24,151.92Z"/><path class="cls-1" d="M406.36,95.76V6.43c1.1-.53,2.11-1.09,3.18-1.49,3.7-1.41,7.42-2.75,11.69-4.33,1,4,.41,7.58.5,11.13.1,3.83,0,7.67,0,11.51V34.87a24.84,24.84,0,0,0,2.66-2.09c10-11,30.55-10.66,41.22,2.47a35.66,35.66,0,0,1,7.8,18.11c1.32,9.93.72,19.56-4,28.72-8.92,17.46-32.23,20.66-45,8.21-.69-.67-1.45-1.27-2.49-2.17-.21,2.75-.38,5-.57,7.64Zm15.4-34.37c0,3.82-.12,7.65.06,11.46a7,7,0,0,0,1.34,4.08c5.14,5.77,11.75,8,19.3,6.88,7.07-1,11.52-5.63,14.06-12,2.26-5.72,2.17-11.77.9-17.68a20,20,0,0,0-7.49-12c-7.1-5.46-20.21-4.23-26.89,4.21a7.47,7.47,0,0,0-1.22,4.11C421.65,54.07,421.76,57.73,421.76,61.39Z"/><path class="cls-1" d="M777.64,131H802c5.74,9.7,11.48,19.41,17.46,29.5,3.11-2.84,4.32-6.5,6.3-9.62s3.86-6.61,5.79-9.91,3.87-6.56,5.86-9.93H862c-3.43,5.53-6.53,10.6-9.7,15.62-6.47,10.28-12.93,20.56-19.53,30.75a12,12,0,0,0-2,7c.09,8.16,0,16.32,0,24.48,0,1.63-.14,3.25-.23,5.17H809.16c-.13-1.3-.37-2.57-.38-3.84,0-8.49-.1-17,0-25.48a13.52,13.52,0,0,0-2.26-7.93c-9-14-17.89-28.06-26.8-42.1C779.13,133.77,778.61,132.75,777.64,131Z"/><path class="cls-1" d="M547,87.26a19.55,19.55,0,0,1-8.82,6.62c-11,4.71-22.28,5.62-33.5,1.23-12.56-4.91-19.57-14.58-21.34-27.84-1.83-13.62,1.95-25.39,12.57-34.53,15.49-13.33,47.58-11.72,55,19.46,1,4.29,1,8.83,1.48,13.79-6.39.75-12.16.29-17.9.37s-11.65,0-17.47,0h-17.4a18.81,18.81,0,0,0,12.87,17.4c8.63,2.76,16.74,1.15,24.34-3.53,1.12-.69,2.16-1.51,3.55-2.49C542.6,81,544.76,84.13,547,87.26ZM536.62,55.52c-.16-11.45-8.34-18.22-20.58-17.61-9.54.48-17.24,8.59-16.5,17.61Z"/><path class="cls-1" d="M340.92,27.14l19.8,50.8C367.6,60.3,374,43.78,380.53,27.13h16.39c-2.67,6.59-5.15,12.75-7.65,18.9q-12.22,30-24.48,60.08c-.5,1.23-1.08,2.43-1.62,3.64-3.46,7.74-9.3,12.32-17.71,13.71a30.29,30.29,0,0,1-15.69-1l3.91-12.76c4.47.21,9.31,1.94,12.55-1.58,2.84-3.08,4.52-7.21,6.7-10.84-9.48-23.52-18.79-46.62-28.27-70.17Z"/><path class="cls-1" d="M321.4,37.56,312,46.47a28.11,28.11,0,0,1-2.65-2.3c-6.22-7-19.59-6.86-26.14-1.46a22,22,0,0,0-7.5,13.13,26.65,26.65,0,0,0,1.93,17.07,19.65,19.65,0,0,0,31.5,5.63l2.52-2.41,9.82,9.06a24.62,24.62,0,0,1-11,9.24c-13.46,5.62-26.34,4.69-38.12-4.24-8.5-6.44-12.43-15.52-13-25.95-.77-14.31,4-26.2,16.5-34.14,12.22-7.76,32.87-7.21,43.3,4.51C320,35.46,320.58,36.44,321.4,37.56Z"/><path class="cls-1" d="M579.85,95.82H565V27.07h14.65c.15,2.71.3,5.46.48,8.66,6.13-5.63,12.48-10.28,21.63-10.54.82,4.76.24,9.5.37,14.68-8.67-.22-16.31,1.82-22.29,9.14Z"/></svg>