<svg id="Layer_1" data-name="Layer 1" xmlns="http://www.w3.org/2000/svg" viewBox="0 0 615 217"><defs><style>.cls-1{fill:#fff;}</style></defs><path class="cls-1" d="M523.89,214.24H502.53V163.09l-.86-.2q-10,25.68-20.08,51.42h-9.85c-6.46-16.62-13-33.46-19.55-50.3-.91,16.68-.86,33.29-.91,50.2H430c-.91-3.89-1-78-.07-83h29.45c5.89,14.19,11,29,17.3,44.31l17.14-44.25h29.79C524.53,135,524.77,207.33,523.89,214.24Z"/><path class="cls-1" d="M265,214.24v-83c1.59-.12,2.87-.32,4.16-.32,11,0,22,0,33,0a46.24,46.24,0,0,1,18.49,3.56c18.79,8.1,26.3,24.2,24.55,43a38.81,38.81,0,0,1-6.93,19.52c-6.47,9-15.37,14.09-26,16.27a61.15,61.15,0,0,1-11.38,1.13c-10.82.15-21.64.07-32.46,0C267.41,214.51,266.43,214.36,265,214.24Zm21.93-19.33c6.47,0,12.86.8,19-.2,8.84-1.44,14.59-7.47,16.31-16.2,1.87-9.43.57-18.46-8-24.62a17.36,17.36,0,0,0-8.2-3.33c-6.23-.49-12.54-.15-19.08-.15Z"/><path class="cls-1" d="M31.58,131.13H59.09c10.41,27.56,20.79,55.07,31.46,83.33-8.47.12-16.37,0-24.63,0-1.45-4-2.86-7.85-4.29-11.79H29.23L25,214.22H.36C10.86,186.27,21.2,158.77,31.58,131.13Zm24,51.93c-3.42-10-6.72-19.59-10.32-30.11-3.56,10.56-6.77,20.1-10.14,30.11Z"/><path class="cls-1" d="M200.21,131.1h27.47c10.36,27.44,20.73,54.9,31.23,82.69-4.15,1.37-8.09.57-11.94.7s-8,0-12.34,0l-4.41-11.79H197.9l-4.38,11.5H169Zm24,52-10.27-30.15c-3.58,10.58-6.84,20.24-10.28,30.42,6.37,0,12,0,17.66,0C222.12,183.33,222.93,183.19,224.21,183.07Z"/><path class="cls-1" d="M415.62,181.6H377.84v13.7h38.37c1.32,3.87,1.52,13,.5,18.9H355.86V131.77c3.69-1,55.08-1.27,61.1-.29v18.15c-4.27.94-8.58.34-12.83.44s-8.66,0-13,0H377.9v12.27c12.58.16,25.13,0,37.51.11C416.66,166.62,416.76,176.52,415.62,181.6Z"/><path class="cls-1" d="M169.88,152.05l-18.35,8.65c-.88-1.19-1.56-2.09-2.22-3-7.67-10.63-22.29-11.74-31.86-2.76-9.26,8.7-8.17,24.16-3.54,31.42,8,12.57,27.51,14.5,35.94.58.34-.56.73-1.08,1.07-1.58,4,.7,14.25,5.38,18.69,8.55-5.17,9.77-12.42,17.37-23.28,20.33-15.27,4.18-29.73,2-42.51-7.83-9.29-7.18-14.4-16.74-15.48-28.52-1.06-11.55.89-22.26,8.13-31.58,7.06-9.1,16.46-14.3,27.76-16.18,10.12-1.7,19.9-.89,29.1,4C160.8,138,165.86,144.21,169.88,152.05Z"/><path class="cls-1" d="M159,95.89V6.56c1.1-.52,2.11-1.09,3.18-1.49,3.7-1.4,7.42-2.75,11.69-4.32,1,4,.41,7.57.51,11.12.09,3.84,0,7.67,0,11.51V35a26,26,0,0,0,2.66-2.1c10-10.95,30.55-10.66,41.22,2.47a35.69,35.69,0,0,1,7.8,18.12c1.32,9.92.72,19.56-4,28.71-8.92,17.46-32.23,20.66-45,8.21-.69-.67-1.45-1.26-2.49-2.16-.21,2.74-.37,5-.57,7.63Zm15.4-34.37c0,3.82-.11,7.65.06,11.47a7,7,0,0,0,1.34,4.07c5.14,5.77,11.75,8,19.3,6.88,7.07-1,11.52-5.63,14.06-12,2.26-5.72,2.17-11.77.9-17.68a20,20,0,0,0-7.49-12c-7.1-5.46-20.21-4.23-26.89,4.21a7.47,7.47,0,0,0-1.22,4.11C174.29,54.2,174.4,57.86,174.4,61.52Z"/><path class="cls-1" d="M530.28,131.16h24.36l17.46,29.49c3.11-2.84,4.32-6.5,6.3-9.62s3.86-6.6,5.79-9.91,3.87-6.56,5.86-9.93h24.59c-3.43,5.53-6.53,10.6-9.69,15.63-6.48,10.27-12.94,20.56-19.54,30.75a11.91,11.91,0,0,0-2,7c.09,8.16,0,16.32,0,24.49,0,1.62-.14,3.25-.23,5.16H561.8c-.13-1.3-.37-2.57-.38-3.84,0-8.49-.1-17,0-25.48a13.52,13.52,0,0,0-2.26-7.93c-9-14-17.89-28.05-26.8-42.1C531.77,133.9,531.25,132.88,530.28,131.16Z"/><path class="cls-1" d="M299.6,87.4c-2.31,3.32-5.52,5.19-8.82,6.61-11,4.71-22.28,5.62-33.5,1.23-12.56-4.91-19.56-14.58-21.34-27.84-1.83-13.61,1.95-25.39,12.57-34.53,15.49-13.33,47.58-11.72,55,19.46,1,4.29,1,8.83,1.48,13.79-6.39.76-12.16.29-17.9.37s-11.65,0-17.47,0h-17.4a18.8,18.8,0,0,0,12.87,17.4c8.63,2.76,16.74,1.15,24.35-3.53,1.11-.69,2.15-1.5,3.54-2.49ZM289.26,55.65C289.1,44.2,280.92,37.43,268.68,38c-9.54.48-17.24,8.6-16.49,17.61Z"/><path class="cls-1" d="M93.56,27.27l19.8,50.81c6.88-17.65,13.31-34.16,19.81-50.82h16.39c-2.67,6.59-5.15,12.75-7.65,18.9q-12.22,30-24.48,60.08c-.5,1.23-1.08,2.43-1.62,3.64-3.45,7.74-9.3,12.32-17.71,13.72a30.3,30.3,0,0,1-15.69-1l3.91-12.76c4.48.21,9.31,1.94,12.55-1.58,2.84-3.07,4.53-7.21,6.7-10.83L77.3,27.27Z"/><path class="cls-1" d="M74,37.7l-9.36,8.9A25.48,25.48,0,0,1,62,44.3c-6.22-7-19.59-6.86-26.14-1.46A22,22,0,0,0,28.39,56,26.63,26.63,0,0,0,30.32,73a19.65,19.65,0,0,0,31.5,5.64l2.52-2.42,9.82,9.06a24.62,24.62,0,0,1-11,9.24c-13.46,5.62-26.34,4.7-38.12-4.24-8.5-6.44-12.43-15.52-13-25.95-.77-14.31,4-26.2,16.5-34.14,12.22-7.76,32.87-7.2,43.3,4.52C72.62,35.59,73.22,36.57,74,37.7Z"/><path class="cls-1" d="M332.49,96H317.66V27.2H332.3c.15,2.71.3,5.47.48,8.66,6.13-5.63,12.48-10.28,21.63-10.54.82,4.76.24,9.5.37,14.68-8.67-.22-16.31,1.82-22.29,9.14Z"/></svg>